<?xml version="1.0"?>
<!--Icons from directory ""-->
<svg xmlns="http://www.w3.org/2000/svg" width="16" height="17" viewBox="0 0 16 17"><svg width="16" height="17" fill="none" id="global" y="0"><path d="M8.286 16.5c1.223-.174 2.296-1.454 2.971-3.344a14.5 14.5 0 00-2.971-.35V16.5zM10.24 16.2c.073-.021.145-.043.216-.066l.18-.061c.07-.024.14-.05.21-.076l.178-.07.203-.087a8.626 8.626 0 00.735-.371 7.808 7.808 0 00.696-.446l.158-.115.173-.136c.051-.04.102-.08.152-.123.057-.047.112-.096.167-.146.049-.043.098-.086.145-.13.055-.051.108-.104.161-.156.046-.046.093-.091.138-.138l.025-.027a9.606 9.606 0 00-1.96-.755A7.11 7.11 0 019.99 16.27c.023-.006.046-.01.07-.017l.18-.053zM16 8.787h-3.429a14.889 14.889 0 01-.577 3.963 9.933 9.933 0 012.17.866A8.015 8.015 0 0016 8.786zM8.286 8.213h3.713a14.358 14.358 0 00-.563-3.823c-1.034.237-2.09.363-3.15.377v3.446zM8.286.5v3.694c1-.014 1.995-.132 2.971-.35C10.582 1.953 9.509.673 8.286.5zM8.286 12.233c1.06.014 2.117.14 3.15.377A14.36 14.36 0 0012 8.787H8.287v3.446zM14.164 3.384a9.932 9.932 0 01-2.17.865c.37 1.29.564 2.623.577 3.964H16a8.016 8.016 0 00-1.836-4.829zM13.778 2.95l-.025-.027c-.045-.047-.092-.092-.138-.137-.053-.053-.106-.106-.16-.157l-.146-.13c-.055-.05-.11-.099-.167-.146-.05-.042-.1-.082-.15-.122a6.09 6.09 0 00-.332-.252 6.92 6.92 0 00-.696-.447 8.109 8.109 0 00-.193-.107l-.171-.089a6.344 6.344 0 00-.375-.176c-.068-.03-.136-.057-.204-.086a8.153 8.153 0 00-.567-.208 7.023 7.023 0 00-.216-.065c-.06-.018-.12-.036-.18-.052-.023-.006-.046-.01-.07-.017a7.113 7.113 0 011.828 2.974 9.586 9.586 0 001.962-.757zM0 8.213h3.429c.013-1.34.207-2.674.577-3.964a9.921 9.921 0 01-2.17-.865A8.015 8.015 0 000 8.214zM7.714 16.5v-3.694c-1 .014-1.995.132-2.971.35.675 1.89 1.748 3.17 2.971 3.344zM7.714 8.787H4c.015 1.293.204 2.58.563 3.823a15.02 15.02 0 013.151-.377V8.787zM7.714.5C6.491.674 5.418 1.954 4.743 3.843c.976.22 1.971.337 2.971.35V.5zM7.714 4.767a15.033 15.033 0 01-3.15-.377A14.355 14.355 0 004 8.213h3.714V4.767zM6.009.732c-.023.006-.046.01-.07.017-.06.016-.12.034-.18.052a9.362 9.362 0 00-.215.065l-.18.061-.21.076-.178.07-.203.087a8.244 8.244 0 00-.903.47l-.185.115a7.503 7.503 0 00-.501.347c-.059.044-.114.09-.173.136-.051.04-.102.081-.152.123-.057.047-.112.096-.167.145-.049.044-.098.086-.146.132-.054.05-.107.103-.16.156-.046.045-.093.09-.138.137l-.025.027c.623.323 1.28.576 1.96.756A7.11 7.11 0 016.008.732zM2.385 14.214c.053.053.106.106.16.157l.146.13a7.662 7.662 0 00.493.406l.156.114a8.037 8.037 0 00.53.35 7.974 7.974 0 00.359.205c.057.028.114.06.172.088a6.573 6.573 0 00.374.177c.068.03.136.057.204.086a8.031 8.031 0 00.387.146c.06.021.12.042.18.061.071.024.143.045.216.066l.18.051c.023.007.046.012.07.018a7.114 7.114 0 01-1.828-2.974 9.592 9.592 0 00-1.96.756l.025.026c.043.047.09.092.136.137zM1.836 13.616a9.936 9.936 0 012.17-.865 14.892 14.892 0 01-.577-3.964H0a8.016 8.016 0 001.836 4.829z" fill="#757575"/></svg></svg>
