<?xml version="1.0"?>
<!--Icons from directory ""-->
<svg xmlns="http://www.w3.org/2000/svg" width="22" height="32" viewBox="0 0 22 32"><svg width="22" height="16" fill="none" id="arrow-left" y="0"><path fill-rule="evenodd" clip-rule="evenodd" d="M6.657.929L.293 7.293a1 1 0 000 1.414l6.364 6.364a1 1 0 001.414-1.414L3.414 9H21a1 1 0 100-2H3.414l4.657-4.657A1 1 0 006.657.93z" fill="#fff"></path></svg><svg width="22" height="16" fill="none" id="arrow-right" y="16"><path fill-rule="evenodd" clip-rule="evenodd" d="M15.343.929l6.364 6.364a1 1 0 010 1.414l-6.364 6.364a1 1 0 01-1.414-1.414L18.586 9H1a1 1 0 010-2h17.586l-4.657-4.657A1 1 0 0115.343.93z" fill="#fff"></path></svg></svg>
