<?xml version="1.0"?>
<!--Icons from directory ""-->
<svg xmlns="http://www.w3.org/2000/svg" width="210" height="228" viewBox="0 0 210 228">
    <svg width="210" height="57" fill="none" id="logo__red-fill" y="0">
        <path d="M198.768 27.133L210 57c-3.311-.475-6.62-1.07-9.991-1.605l-6.327-16.505-6.502 15.141c-3.192-.534-6.327-.714-9.519-1.129l11.411-26.125L178.725 0h9.579l5.793 14.961L200.306 0H210l-11.232 27.133zM171.158 0h-8.691v51.775c2.838.178 5.794.296 8.691.652V0zm-16.2 51.18c-7.922-.534-15.845-1.008-23.943-1.188V0h8.866v41.562c5.086.119 10.17.534 15.077.77v8.848zm-33.404-30.933v8.906h-12.118v20.246h-8.751V0h24.831v8.906h-16.08v11.34h12.118zM85.786 8.907v40.968c-2.956 0-5.97 0-8.868.117V8.906h-9.165V0h27.255v8.906h-9.222zm-27.61 20.72c-3.901 0-8.514 0-11.824.18v13.24c5.202-.358 10.405-.773 15.667-.951v8.55l-24.535 1.96V0h24.535v8.906H46.352v11.992c3.43 0 8.69-.178 11.824-.178v8.906zM9.046 24.64v31.112C5.853 56.11 3.014 56.525 0 57V0h8.455l11.528 32.36V0h8.868v53.317c-3.133.536-6.325.714-9.696 1.188L9.045 24.64z" fill="#E50914"></path>
    </svg>
    <svg width="210" height="57" fill="none" id="logo__red-outline" y="57">
        <path d="M198.306 26.942l-.075.182.069.185 10.934 29.073c-1.795-.267-3.586-.566-5.393-.866-1.148-.191-2.302-.383-3.468-.569l-6.224-16.236-.44-1.149-.486 1.131-6.348 14.782c-1.806-.287-3.617-.471-5.415-.654-1.03-.105-2.055-.209-3.073-.332l11.143-25.512.082-.188-.074-.192L179.454.5h8.507l5.67 14.642.45 1.162.478-1.151L200.639.5h8.613l-10.946 26.442zm-66.791 22.562V.5h7.866v41.55l.488.012c3.241.076 6.469.271 9.663.465 1.652.1 3.295.2 4.926.282v7.836c-7.587-.509-15.185-.958-22.943-1.141zm-10.461-28.757v7.906h-12.118v20.246h-7.751V.5h23.831v7.906h-16.08v12.34h12.118zM85.786 8.407h-.5v40.968c-2.619 0-5.284.006-7.868.098V8.406h-9.165V.5h26.255v7.906h-8.722zm-28.11 12.815v7.904c-3.787 0-8.166.008-11.352.181l-.472.026v14.25l.534-.037c.997-.069 1.994-.14 2.99-.21 4.038-.286 8.073-.572 12.143-.722v7.57l-23.535 1.881V.5h23.535v7.906H45.852v12.992h.5c1.72 0 3.899-.044 6.033-.089l.14-.003c1.869-.039 3.694-.077 5.15-.084zM9.519 24.48l-.974.16v30.665c-2.82.324-5.378.694-8.045 1.11V.5h7.602l11.41 32.028.971-.168V.5h7.868v52.393c-1.414.228-2.845.389-4.311.544l-.66.07c-1.267.133-2.561.269-3.884.447L9.52 24.48zM170.658.5v51.364c-2.102-.236-4.231-.359-6.302-.478-.466-.027-.929-.053-1.389-.081V.5h7.691z" stroke="#E50914"></path>
    </svg>
    <svg width="210" height="57" fill="none" id="logo__white-fill" y="114">
        <path d="M198.768 27.133L210 57c-3.311-.475-6.62-1.07-9.991-1.605l-6.327-16.505-6.502 15.141c-3.192-.534-6.327-.714-9.519-1.129l11.411-26.125L178.725 0h9.579l5.793 14.961L200.306 0H210l-11.232 27.133zM171.158 0h-8.691v51.775c2.838.178 5.794.296 8.691.652V0zm-16.2 51.18c-7.922-.534-15.845-1.008-23.943-1.188V0h8.866v41.562c5.086.119 10.17.534 15.077.77v8.848zm-33.404-30.933v8.906h-12.118v20.246h-8.751V0h24.831v8.906h-16.08v11.34h12.118zM85.786 8.907v40.968c-2.956 0-5.97 0-8.868.117V8.906h-9.165V0h27.255v8.906h-9.222zm-27.61 20.72c-3.901 0-8.514 0-11.824.18v13.24c5.202-.358 10.405-.773 15.667-.951v8.55l-24.535 1.96V0h24.535v8.906H46.352v11.992c3.43 0 8.69-.178 11.824-.178v8.906zM9.046 24.64v31.112C5.853 56.11 3.014 56.525 0 57V0h8.455l11.528 32.36V0h8.868v53.317c-3.133.536-6.325.714-9.696 1.188L9.045 24.64z" fill="#fff"></path>
    </svg>
    <svg width="210" height="57" fill="none" id="logo__white-outline" y="171">
        <path d="M198.306 26.942l-.075.182.069.185 10.934 29.073c-1.795-.267-3.586-.566-5.393-.866-1.148-.191-2.302-.383-3.468-.569l-6.224-16.236-.44-1.149-.486 1.131-6.348 14.782c-1.806-.287-3.617-.471-5.415-.654-1.03-.105-2.055-.209-3.073-.332l11.143-25.512.082-.188-.074-.192L179.454.5h8.507l5.67 14.642.45 1.162.478-1.151L200.639.5h8.613l-10.946 26.442zm-66.791 22.562V.5h7.866v41.55l.488.012c3.241.076 6.469.271 9.663.465 1.652.1 3.295.2 4.926.282v7.836c-7.587-.509-15.185-.958-22.943-1.141zm-10.461-28.757v7.906h-12.118v20.246h-7.751V.5h23.831v7.906h-16.08v12.34h12.118zM85.786 8.407h-.5v40.968c-2.619 0-5.284.006-7.868.098V8.406h-9.165V.5h26.255v7.906h-8.722zm-28.11 12.815v7.904c-3.787 0-8.166.008-11.352.181l-.472.026v14.25l.534-.037c.997-.069 1.994-.14 2.99-.21 4.038-.286 8.073-.572 12.143-.722v7.57l-23.535 1.881V.5h23.535v7.906H45.852v12.992h.5c1.72 0 3.899-.044 6.033-.089l.14-.003c1.869-.039 3.694-.077 5.15-.084zM9.519 24.48l-.974.16v30.665c-2.82.324-5.378.694-8.045 1.11V.5h7.602l11.41 32.028.971-.168V.5h7.868v52.393c-1.414.228-2.845.389-4.311.544l-.66.07c-1.267.133-2.561.269-3.884.447L9.52 24.48zM170.658.5v51.364c-2.102-.236-4.231-.359-6.302-.478-.466-.027-.929-.053-1.389-.081V.5h7.691z" stroke="#fff"></path>
    </svg>
</svg>
